# xmcd CD database file
#
# Track frame offsets:
#	150
#	27220
#	53210
#	84093
#	105363
#	130815
#	162502
#	191884
#	228035
#
# Disc length: 3382 seconds
#
# Revision: 0
# Processed by: cddbd v1.5.2PL0 Copyright (c) Steve Scherf et al.
# Submitted via: CDex 1.51
#
DISCID=650d3409
DTITLE=Ada Montellanico - Il sole di un Attimo
DYEAR=2008
DGENRE=Jazz
TTITLE0=Ti Sognerò comunque
TTITLE1=L'alba di un incontro
TTITLE2=Suono di mare
TTITLE3=Romance
TTITLE4=E'
TTITLE5=Mi guardi intorno
TTITLE6=Il sole di un attimo
TTITLE7=Luoghi sommersi
TTITLE8=The encounter
EXTD=YEAR: 2008
EXTT0=
EXTT1=
EXTT2=
EXTT3=
EXTT4=
EXTT5=
EXTT6=
EXTT7=
EXTT8=
PLAYORDER=
